# xmcd
#
# Track frame offsets: 
#        180
#        18608
#        32082
#        46909
#        66218
#        81939
#        91245
#        107285
#        117950
#        133138
#        148696
#        166269
#        182255
#        195400
#        208727
#        220937
#        236462
#
# Disc length: 3362 seconds
#
# Revision: 2
# Processed by: cddbd v1.5.2PL0 Copyright (c) Steve Scherf et al.
# Submitted via: ExactAudioCopy v1.0b1
#
DISCID=e50d2011
DTITLE=Glamour Puss - Blues du Jour
DYEAR=1999
DGENRE=Blues
TTITLE0=But They Should
TTITLE1=Rockin' In the Pocket
TTITLE2=Businessman
TTITLE3=It Takes One To Know One
TTITLE4=Living Large
TTITLE5=Fishbelly
TTITLE6=Right Sized
TTITLE7=Hey, Hey, Slack la Patate
TTITLE8=Baby Gotta Rock All Night
TTITLE9=Won't Look Back
TTITLE10=Everybody Gets The Blues
TTITLE11=Cajun Woman
TTITLE12=Mike a Joe
TTITLE13=Roll With The Punches
TTITLE14=Blues du Jour
TTITLE15=Au Bout du Voyage
TTITLE16=Craquer
EXTD=
EXTT0=
EXTT1=
EXTT2=
EXTT3=
EXTT4=
EXTT5=
EXTT6=
EXTT7=
EXTT8=
EXTT9=
EXTT10=
EXTT11=
EXTT12=
EXTT13=
EXTT14=
EXTT15=
EXTT16=
PLAYORDER=
